<?xml version="1.0" encoding="UTF-8"?> <!-- Generator: Adobe Illustrator 22.0.1, SVG Export Plug-In . SVG Version: 6.00 Build 0) --> <svg xmlns="http://www.w3.org/2000/svg" xmlns:xlink="http://www.w3.org/1999/xlink" id="Warstwa_1" x="0px" y="0px" viewBox="0 0 185 72" style="enable-background:new 0 0 185 72;" xml:space="preserve"> <style type="text/css"> .st0{fill:#4969A8;stroke:#000000;stroke-width:0.3939;} .st1{fill:#799FD3;stroke:#000000;stroke-width:0.3939;} .st2{fill:#FFD365;stroke:#000000;stroke-width:0.3939;} .st3{fill:#F05B46;stroke:#000000;stroke-width:0.3939;} .st4{fill:#FFD365;stroke:#000000;stroke-width:0.4925;} .st5{fill:#FFFFFF;} .st6{fill:none;stroke:#000000;stroke-width:0.3709;} .st7{fill:none;stroke:#000000;stroke-width:0.4411;} .st8{fill:none;stroke:#000000;stroke-width:0.3939;} .st9{fill:#4969A8;} .st10{fill:none;stroke:#000000;stroke-width:0.4401;} .st11{fill:none;stroke:#000000;stroke-width:0.9455;} .st12{fill:none;stroke:#000000;stroke-width:0.591;} .st13{fill:#89AC3F;} .st14{fill-rule:evenodd;clip-rule:evenodd;fill:#FFFFFF;} .st15{fill:#231F20;} </style> <path class="st0" d="M60.1,21.6l0.8-3.5c0.7-2.1,5.5-0.7,5.8,1.6l-1.2,3.5"></path> <path class="st1" d="M59.4,24.1l0.9-3.1c1.9,1.3,3.8,1.7,5.6,1.1l-1.1,3.7"></path> <path class="st0" d="M51.6,50.5L59.8,23c1.2,1.5,3.5,2.2,5.5,1.4l-8.3,27.7"></path> <polygon class="st2" points="52.3,56.3 53.4,56.6 57,51.9 56.7,50.3 55.4,51.5 54.8,49.8 53.5,51.1 53,49.5 51.7,50.6 "></polygon> <path class="st3" d="M30.6,47.7c-0.1,0.2,0.1,1.5,0.5,1.7c0.3,0.3,0.4,0.4,0.4,0.7c0.1,0.3-0.3,0.7-0.2,1c0.1,0.3,0.4,0.2,0.4,0.5 c0.1,0.3-0.4,0.5-0.3,0.9c0.1,0.4,0.5,0.3,0.6,0.7c0.1,0.3-0.2,0.4-0.1,0.8c0.1,0.3,0.6,0.4,0.6,0.7c0.1,0.3-0.4,0.5-0.3,0.8 c0.1,0.4,2.5,1.5,2.6,1.5c0.1,0,0.3,0,0.5,0c0.2,0,0.9,1.9,1.2,1.8c1.5-0.3,2.5-0.5,3.9-0.8c0.3-0.1,0.4-2,0.6-2.1 c0.2,0,0.3-0.1,0.4-0.1c0,0,1.8-2.4,1.7-2.8c-0.1-0.4-0.5-0.4-0.6-0.7c-0.1-0.3,0.3-0.5,0.2-0.8c-0.1-0.3-0.5-0.3-0.5-0.7 c0-0.4,0.3-0.6,0.3-0.9c0-0.3-0.4-0.3-0.5-0.6c0-0.3,0.2-0.6,0.2-0.9c-0.1-0.3-0.5-0.3-0.5-0.6c0-0.3,0.4-0.3,0.5-0.7 c0.1-0.4-0.2-1.5-0.3-1.3C40.5,47.4,34.2,48.7,30.6,47.7z"></path> <path class="st4" d="M41.7,46.1c-0.1-4.5,0-6.4,0.7-7.9c0.7-1.5,4.2-7.7,2.4-15.3c-1.7-7.6-9.7-10.4-16.1-9 c-6.4,1.4-12,7.3-10.8,14.6c1.2,7.3,8.8,12.2,9.7,13.2c1,1,1.6,2.6,2.9,6.1"></path> <path class="st5" d="M30.6,28.7c0,1.8-1.5,3.3-3.3,3.3c-1.8,0-3.3-1.5-3.3-3.3c0-1.8,1.5-3.3,3.3-3.3C29.1,25.4,30.6,26.9,30.6,28.7 z"></path> <path class="st6" d="M30.6,28.7c0,1.8-1.5,3.3-3.3,3.3c-1.8,0-3.3-1.5-3.3-3.3c0-1.8,1.5-3.3,3.3-3.3C29.1,25.4,30.6,26.9,30.6,28.7 z"></path> <path class="st5" d="M37.8,25.9c0,2.2-1.8,3.9-3.9,3.9c-2.2,0-3.9-1.8-3.9-3.9c0-2.2,1.8-3.9,3.9-3.9C36,22,37.8,23.8,37.8,25.9z"></path> <path class="st7" d="M37.8,25.9c0,2.2-1.8,3.9-3.9,3.9c-2.2,0-3.9-1.8-3.9-3.9c0-2.2,1.8-3.9,3.9-3.9C36,22,37.8,23.8,37.8,25.9z"></path> <path d="M29.1,30.2c0,0.7-0.6,1.2-1.3,1.2c-0.7,0-1.3-0.5-1.3-1.2c0-0.7,0.6-1.2,1.3-1.2C28.5,29,29.1,29.5,29.1,30.2z"></path> <path class="st6" d="M29.1,30.2c0,0.7-0.6,1.2-1.3,1.2c-0.7,0-1.3-0.5-1.3-1.2c0-0.7,0.6-1.2,1.3-1.2C28.5,29,29.1,29.5,29.1,30.2z"></path> <path d="M36.1,27.9c0,0.7-0.6,1.2-1.3,1.2c-0.7,0-1.3-0.5-1.3-1.2c0-0.7,0.6-1.2,1.3-1.2C35.6,26.7,36.1,27.2,36.1,27.9z"></path> <path class="st6" d="M36.1,27.9c0,0.7-0.6,1.2-1.3,1.2c-0.7,0-1.3-0.5-1.3-1.2c0-0.7,0.6-1.2,1.3-1.2C35.6,26.7,36.1,27.2,36.1,27.9 z"></path> <path d="M21.7,27.3c-0.4-2.9,2.7-5.8,3.8-4.2C24.3,23.7,23,25.2,21.7,27.3z"></path> <path class="st6" d="M21.7,27.3c-0.4-2.9,2.7-5.8,3.8-4.2C24.3,23.7,23,25.2,21.7,27.3z"></path> <path d="M29.8,20.5c2.3-0.8,4.8-0.9,7.5-0.3C35.1,18.6,31.5,18,29.8,20.5z"></path> <path class="st6" d="M29.8,20.5c2.3-0.8,4.8-0.9,7.5-0.3C35.1,18.6,31.5,18,29.8,20.5z"></path> <path class="st5" d="M38.1,34.7c-0.4,1.2-0.4,3.5,0,4.6c0,0-5,1.6-6.7,0.9c-1.7-0.7-1.8-3.6-1.8-3.6C29.7,36,33.1,36.7,38.1,34.7"></path> <polygon points="30,38.4 32.3,38.1 30,38.9 "></polygon> <polygon points="37.8,37.1 35.5,37.5 37.8,36.7 "></polygon> <path class="st8" d="M37.2,32.7c0.9,0.4,0.4,0.9,2.1,1.4c-3.6,2.1-7.3,2.1-10.7,2.5"></path> <path class="st8" d="M29.7,36.5c0.3,4.6,3.7,4.8,8.7,2.7c-0.2-1.3-0.7-2.1-0.3-4.4"></path> <path class="st9" d="M14.1,23c2.6,1.7,2.6,3.9,3.5,5.5c4.7-6.4,9.5-12,19.8-13.9c-3.7-2.9-3.9-4.2-5.1-5.6L14.1,23z"></path> <path class="st8" d="M14.1,23c2.6,1.7,2.6,3.9,3.5,5.5c4.7-6.4,9.5-12,19.8-13.9c-3.7-2.9-3.9-4.2-5.1-5.6L14.1,23z"></path> <polygon class="st9" points="3.3,29.1 16.6,11.3 38.8,2.2 23.4,18.7 "></polygon> <polygon class="st10" points="3.3,29.1 16.6,11.3 38.8,2.2 23.4,18.7 "></polygon> <polyline class="st11" points="19.2,14.6 9.3,26 14.5,38.9 "></polyline> <path d="M20,14.5c0,0.3-0.3,0.6-0.6,0.6c-0.4,0-0.6-0.3-0.6-0.6c0-0.3,0.3-0.6,0.6-0.6C19.7,13.9,20,14.2,20,14.5"></path> <polyline class="st12" points="13.6,42.6 14.4,38.7 15.2,42.6 "></polyline> <polyline class="st12" points="17,40.8 14.5,38.6 16.3,42 "></polyline> <path class="st13" d="M71.4,10c-0.6,1.1-1.1,1.9-1.6,2.4c-0.5,0.5-0.8,0.8-1.1,0.8c-0.4,0-0.6-0.5-0.6-1.4c0-0.9,0.1-1.7,0.4-2.4 c0.3-0.7,0.6-1.3,1.1-1.9c0.5-0.6,1-1,1.6-1.4c0.6-0.4,1.3-0.7,2.1-1C74,5,74.8,4.8,75.6,4.7c0.8-0.1,1.7-0.2,2.6-0.2 c1,0,2.1,0.1,3.1,0.2c1,0.2,2,0.4,3,0.6c1,0.3,1.8,0.6,2.7,1c0.8,0.4,1.5,0.8,2.2,1.3c0.6,0.5,1.1,1,1.4,1.5 c0.4,0.5,0.5,1.1,0.5,1.7c0,0.7-0.2,1.4-0.5,2.1c-0.3,0.7-0.8,1.3-1.4,1.8c-0.7,0.5-1.5,1-2.5,1.4c-1,0.4-2.2,0.5-3.6,0.6 c0.9,0,1.7,0.1,2.4,0.4c0.7,0.3,1.2,0.7,1.7,1.2c0.5,0.5,0.8,1.1,1,1.7c0.2,0.7,0.3,1.4,0.3,2.1c0,0.6-0.1,1.2-0.2,1.7 c-0.2,0.6-0.4,1.2-0.7,1.7c-0.3,0.5-0.7,1.1-1.2,1.5c-0.5,0.5-1,0.9-1.6,1.2c-0.6,0.4-1.3,0.6-2.1,0.8c-0.8,0.2-1.6,0.3-2.6,0.3 c-0.6,0-1.2,0-1.9-0.1c-0.7-0.1-1.3-0.2-2-0.3c-0.7-0.1-1.3-0.3-2-0.5c-0.6-0.2-1.3-0.4-1.8-0.6c-0.3-0.1-0.5-0.2-0.7-0.3 c-0.2-0.1-0.3-0.4-0.3-0.7c0-1.5,0-3.1,0.1-4.6c0.1-1.6,0.2-3.1,0.5-4.7c0.2-1.6,0.6-2.9,1-4c0.4-1.1,1-2.3,1.7-3.3 c0.6-0.4,1.2-0.7,1.8-0.7c0.7,0,1.2,0.4,1.7,1.1c-0.4,0.6-0.8,1.2-1.1,1.9c-0.3,0.7-0.5,1.3-0.7,1.8c-0.2,0.5-0.3,1.2-0.4,2 c-0.1,0.8-0.2,1.6-0.3,2.3c0,0.4-0.1,0.9-0.1,1.4c0,0.5-0.1,1-0.1,1.5c0,0.5,0,1-0.1,1.5c0,0.5,0,1,0,1.4V25c0,0.1,0,0.3,0,0.4 c0,0.1,0.1,0.3,0.1,0.4c0,0.1,0.1,0.2,0.2,0.3c0.6,0.2,1.2,0.3,1.8,0.5c0.6,0.1,1.3,0.2,1.9,0.2c0.8,0,1.5-0.1,2.2-0.3 c0.7-0.2,1.4-0.5,1.9-0.9c0.6-0.4,1-0.9,1.4-1.6c0.3-0.6,0.5-1.4,0.5-2.4c0-0.5-0.1-1-0.3-1.3c-0.2-0.3-0.5-0.6-0.8-0.9 c-0.3-0.2-0.7-0.4-1.1-0.6c-0.4-0.1-0.8-0.3-1.3-0.4c-0.4-0.1-0.9-0.2-1.3-0.3c-0.4-0.1-0.8-0.2-1.1-0.4c-0.3-0.2-0.6-0.4-0.8-0.6 c-0.2-0.2-0.3-0.6-0.3-1c0-0.2,0-0.4,0-0.5c0-0.1,0.1-0.3,0.2-0.3c0.1-0.1,0.2-0.2,0.4-0.2c0.2,0,0.4-0.1,0.7-0.1c0.4,0,0.7,0,1.1,0 c0.3,0,0.7,0,1,0c0.9,0,1.7-0.1,2.4-0.3c0.7-0.2,1.3-0.5,1.8-0.9c0.5-0.4,0.9-0.8,1.1-1.3c0.3-0.5,0.4-1,0.4-1.6 c0-0.4-0.1-0.7-0.3-1c-0.2-0.3-0.5-0.6-0.9-0.8c-0.4-0.2-0.8-0.5-1.3-0.6c-0.5-0.2-1.1-0.3-1.7-0.5c-0.6-0.1-1.2-0.2-1.9-0.3 c-0.7-0.1-1.3-0.1-2-0.1c-1.1,0-2,0-2.6,0.1c-0.8,0.1-1.6,0.2-2.3,0.4c-0.7,0.2-1.4,0.4-1.9,0.8C72.1,9.3,71.7,9.7,71.4,10"></path> <path class="st13" d="M89.3,25.3c0-0.4,0-0.9,0.1-1.4c0-0.5,0.1-1.1,0.2-1.7c0.1-0.6,0.2-1.2,0.3-1.8c0.1-0.6,0.2-1.3,0.4-2 c0.2-0.7,0.3-1.3,0.4-1.7c0.1-0.5,0.2-0.8,0.4-1.1c0.1-0.2,0.1-0.4,0.2-0.5c0.1-0.1,0.2-0.2,0.3-0.3c0.1-0.1,0.2-0.1,0.4-0.1 c0.1,0,0.3,0,0.5,0c0.2,0,0.4,0,0.6,0c0.1,0,0.2,0.1,0.3,0.2c0.1,0.1,0.1,0.2,0.1,0.4c0,0.2,0,0.4,0,0.7c0,0.3,0,0.8-0.1,1.4 c0,0.6-0.1,1.2,0,1.6h0.1c0.2-0.4,0.4-0.8,0.7-1.4c0.3-0.6,0.6-1.1,0.9-1.5c0.3-0.4,0.6-0.7,1-1c0.4-0.3,0.8-0.4,1.3-0.4 c0.2,0,0.3,0,0.5,0.1c0.2,0.1,0.3,0.1,0.4,0.3c0.1,0.1,0.2,0.2,0.3,0.4c0.1,0.2,0.1,0.3,0.1,0.5c0,0.2,0,0.4-0.1,0.6 c0,0.3-0.1,0.6-0.2,1.1c-0.1,0.4-0.2,0.8-0.2,1.1c0,0.3-0.1,0.5-0.1,0.7c0,0.3,0,0.6,0.1,0.8c0.1,0.2,0.1,0.4,0.3,0.5 c0.1,0.1,0.2,0.2,0.4,0.3c0.1,0.1,0.3,0.1,0.4,0.1c0.4,0,0.8-0.1,1.3-0.3c0.4-0.2,0.8-0.4,1.2-0.6c0.4-0.3,0.8-0.6,1.3-0.9l-0.2,3.2 c-0.2,0.2-0.5,0.3-0.8,0.5c-0.3,0.2-0.6,0.4-1,0.5c-0.3,0.2-0.7,0.3-1.1,0.4c-0.4,0.1-0.7,0.2-1.1,0.2c-0.7,0-1.2-0.1-1.6-0.4 c-0.4-0.3-0.7-0.6-1-1.1c-0.2-0.4-0.4-1-0.5-1.5c-0.1-0.6-0.2-1.1-0.3-1.7H95l-2.4,6.8c-0.1,0.4-0.2,0.6-0.4,0.9 c-0.1,0.2-0.2,0.4-0.3,0.6c-0.1,0.1-0.2,0.2-0.4,0.3c-0.1,0.1-0.3,0.1-0.4,0.1c-0.4,0-0.7-0.1-0.9-0.2c-0.2-0.2-0.4-0.4-0.5-0.6 c-0.1-0.3-0.2-0.6-0.2-0.9C89.3,26,89.3,25.7,89.3,25.3"></path> <path class="st13" d="M103.8,11c0-0.2,0-0.4,0.1-0.7c0.1-0.3,0.2-0.5,0.4-0.7c0.2-0.2,0.5-0.4,0.8-0.6c0.3-0.2,0.8-0.2,1.3-0.2 c0.3,0,0.6,0,0.9,0.1c0.3,0.1,0.5,0.2,0.7,0.3c0.2,0.1,0.4,0.3,0.5,0.6c0.1,0.2,0.2,0.5,0.2,0.9c0,0.3,0,0.6-0.2,0.9 c-0.1,0.3-0.3,0.6-0.5,0.8c-0.2,0.2-0.5,0.4-0.8,0.6c-0.3,0.1-0.7,0.2-1.2,0.2c-0.8,0-1.4-0.2-1.8-0.6C104,12.1,103.8,11.6,103.8,11 M109.9,25.3c-0.3,0.3-0.7,0.6-1.2,1c-0.5,0.3-1,0.7-1.6,0.9c-0.6,0.3-1.1,0.5-1.7,0.7c-0.6,0.2-1.1,0.3-1.7,0.3 c-0.5,0-0.9-0.1-1.2-0.2c-0.3-0.1-0.6-0.3-0.8-0.6c-0.2-0.2-0.3-0.5-0.4-0.9c-0.1-0.3-0.1-0.7-0.1-1.1c0-0.6,0.1-1.2,0.2-2 c0.3-1.5,0.4-2.3,0.5-2.5c0.1-0.4,0.4-1.3,0.8-2.7c0.3-1.1,0.5-1.9,0.6-2.2c0-0.2,0.2-0.4,0.4-0.6c0.2-0.2,0.4-0.3,0.6-0.4 c0.2-0.1,0.5-0.2,0.8-0.2c0.3,0,0.5-0.1,0.7-0.1c0.4,0,0.6,0.1,0.8,0.2c0.1,0.1,0.2,0.3,0.2,0.6c0,0.2,0,0.5-0.1,0.9 c-0.1,0.4-0.2,0.8-0.3,1.3c-0.1,0.5-0.3,1-0.5,1.7c-0.2,0.7-0.4,1.3-0.5,1.8c-0.1,0.5-0.2,1.1-0.3,1.6c-0.1,0.5-0.1,1-0.1,1.4 c0,0.4,0,0.7,0.1,1c0.1,0.2,0.3,0.4,0.6,0.4c0.3,0,0.7-0.1,1.1-0.3c0.4-0.2,0.8-0.5,1.2-0.8c0.4-0.3,0.8-0.7,1.2-1 c0.4-0.3,0.7-0.6,1-0.9V25.3z"></path> <path class="st13" d="M114.9,31.7c0,0.1,0,0.4-0.1,0.9c0,0.5-0.1,0.8-0.1,1.2c0,0.3-0.1,0.6-0.2,0.9c-0.1,0.5-0.3,0.9-0.4,1.2 c-0.1,0.3-0.2,0.6-0.3,0.9c-0.1,0.3-0.2,0.5-0.3,0.7c-0.1,0.2-0.2,0.3-0.4,0.5c-0.1,0.1-0.3,0.2-0.5,0.3c-0.2,0.1-0.4,0.1-0.6,0.1 c-0.6,0-0.8-0.4-0.5-1.3c0.4-1,0.9-2.1,1.5-3.1C113.7,32.9,114.3,32.1,114.9,31.7 M112,22.4c0.1-0.5,0.6-1.6,1.4-3.1 c0.8-1.4,1.7-2.1,2.8-2.1l-1,4.5c0,0.8-0.2,1.6-0.5,2.4c-0.4,1-0.9,1.5-1.5,1.5c-0.4,0-0.6-0.2-0.9-0.6 C111.9,24.4,111.8,23.5,112,22.4z M112.3,40.8c0.6,0,1.1-0.1,1.6-0.3c0.5-0.2,0.9-0.4,1.2-0.7c0.3-0.3,0.7-0.6,0.9-1.1 c0.3-0.4,0.5-0.8,0.7-1.3c0.2-0.4,0.3-0.9,0.5-1.4c0.1-0.5,0.2-1,0.3-1.4c0.1-0.4,0.1-0.8,0.1-1.2c0-0.2,0-0.4,0.1-0.8 c0.1-1.2,0.2-2,0.3-2.4c0.1-0.4,0.3-0.7,0.5-0.9c0.4-0.3,1-0.7,1.9-1.2c0,0,0.1-0.1,0.2-0.1c0.5-0.4,1-0.9,1.7-1.5 c0.6-0.7,1.1-1.3,1.3-1.8l-0.9-3c-1.4,2.2-2.6,3.7-3.6,4.5c-0.3,0.2-0.6,0.4-0.8,0.6c0.1-1.4,0.2-2.6,0.3-3.5 c0.1-0.9,0.2-1.7,0.4-2.4c0.2-0.7,0.3-1.3,0.3-1.8c0.1-1.6,0.1-2.5,0-2.8c-0.1-0.2-0.1-0.3-0.2-0.4c-0.2-0.2-0.4-0.4-0.8-0.4l-0.6,0 c-0.1,0-0.2,0-0.3,0c-0.1,0-0.2,0-0.2-0.1c-0.1,0-0.1,0-0.2-0.1c0,0-0.1,0-0.2-0.1c-0.1-0.1-0.1-0.1-0.1-0.1c0,0-0.1-0.1-0.1-0.1 c-0.1-0.1-0.1-0.1-0.1-0.2c-0.2-0.3-0.6-0.4-1-0.4c-1,0-2.1,0.5-3.2,1.5c-0.8,0.7-1.4,1.5-1.9,2.4c-0.5,0.9-1,2.1-1.4,3.5 c-0.5,1.5-0.5,2.8,0,4c0.3,0.6,0.7,1.2,1.3,1.6c0.6,0.4,1.2,0.6,2,0.6c1,0,2-0.5,3-1.5l-0.3,1.6c-0.6,0.5-1.1,1-1.5,1.4 c-0.4,0.4-0.9,1-1.6,1.7c-0.3,0.3-0.6,0.7-0.9,1.2c-0.3,0.4-0.5,0.8-0.6,1c-0.1,0.2-0.4,0.7-0.7,1.3c-0.6,1.1-0.9,2.1-0.8,3 c0,0.5,0.2,1,0.4,1.3c0.2,0.4,0.5,0.7,0.8,0.9c0.3,0.2,0.7,0.4,1.1,0.5C111.5,40.8,111.9,40.8,112.3,40.8z"></path> <path class="st13" d="M144.9,7.9c0-0.1,0-0.2,0-0.3c0-0.1,0-0.2-0.1-0.3c0-0.1-0.1-0.2-0.2-0.3c-0.1-0.1-0.2-0.1-0.4-0.1 c-0.2,0-0.5,0.2-0.7,0.6c-0.2,0.4-0.5,1-0.7,1.6c-0.2,0.7-0.4,1.4-0.6,2.1c-0.2,0.8-0.4,1.5-0.5,2.3c0.1,0,0.3,0,0.4,0 c0.1,0,0.3,0,0.4,0c0.3-0.5,0.6-1,0.9-1.5c0.3-0.5,0.6-1.1,0.8-1.6c0.2-0.5,0.4-1,0.6-1.5C144.9,8.5,144.9,8.2,144.9,7.9 M146.9,26.6c-1.3,1.2-2.8,1.5-4.3,1.6c-0.7,0-1.3-0.2-1.8-0.6c-0.5-0.4-1-1-1.3-1.8c-0.4-0.8-0.6-1.7-0.8-2.9 c-0.2-1.1-0.3-2.4-0.3-3.8c0-0.5,0-1.1,0.1-1.7c0-0.6,0.1-1.2,0.2-1.8c-0.3,0-0.5-0.1-0.6-0.1c-0.1,0-0.3-0.1-0.5-0.1 c-0.2,0-0.4-0.1-0.6-0.1c-0.3,0-0.6-0.1-1.1-0.1c-0.2,0-0.4-0.1-0.5-0.2c-0.1-0.1-0.2-0.2-0.3-0.3c-0.1-0.1-0.1-0.2-0.1-0.3 c0-0.1,0-0.2,0-0.3c0-0.2,0.1-0.3,0.3-0.4c0.2-0.1,0.4-0.2,0.7-0.2c0.3,0,0.6-0.1,0.9-0.1c0.3,0,0.6,0,1,0c0.3,0,0.6,0,0.8,0 c0.2,0,0.4,0,0.5,0c0.2-1.2,0.6-2.4,0.9-3.6c0.4-1.2,0.8-2.2,1.3-3.1c0.5-0.9,1-1.6,1.5-2.2c0.6-0.5,1.1-0.8,1.7-0.8 c0.4,0,0.7,0.1,1.1,0.3c0.3,0.2,0.6,0.5,0.8,0.9c0.2,0.4,0.4,0.8,0.5,1.3c0.1,0.5,0.2,1,0.2,1.5c0,0.4-0.1,0.9-0.2,1.4 c-0.1,0.5-0.3,1-0.5,1.5c-0.2,0.5-0.5,1-0.8,1.6c-0.3,0.5-0.6,1.1-0.9,1.6c0.1,0,0.2,0,0.4,0c0.2,0,0.4,0,0.7,0c0.3,0,0.5,0,0.8,0 c0.3,0,0.6,0,0.8,0c0.3,0,0.5,0,0.8,0c0.2,0,0.4,0,0.6,0c0.2,0,0.3,0.1,0.4,0.3c0.1,0.2,0.1,0.4,0.1,0.7c0,0.3-0.1,0.6-0.3,0.8 c-0.2,0.2-0.4,0.3-0.6,0.3h-5.2c-0.3,0.4-0.5,0.7-0.8,1.1c-0.3,0.3-0.5,0.7-0.7,0.9c0,0.6-0.1,1.1-0.1,1.7c0,0.2,0,0.5,0,0.7 c0,0.2,0,0.5,0,0.7c0,0.2,0,0.5,0,0.7c0,0.2,0,0.4,0,0.6c0,0.5,0,0.9,0.1,1.2c0.1,0.3,0.2,0.6,0.4,0.8c0.2,0.2,0.4,0.4,0.6,0.5 c0.2,0.1,0.5,0.1,0.8,0.1c0.2,0,0.4,0,0.7-0.1c1.9-0.7,1.2-0.8,2.5-2.1C148.3,23.4,149.4,24.2,146.9,26.6z"></path> <path class="st13" d="M71.4,40.2c-0.6,1.1-1.1,1.9-1.6,2.4c-0.5,0.5-0.8,0.8-1.1,0.8c-0.4,0-0.6-0.5-0.6-1.4c0-0.9,0.1-1.7,0.4-2.4 c0.3-0.7,0.6-1.3,1.1-1.9c0.5-0.5,1-1,1.6-1.4c0.6-0.4,1.3-0.7,2.1-1c0.7-0.2,1.5-0.4,2.4-0.6c0.8-0.1,1.7-0.2,2.6-0.2 c1,0,2.1,0.1,3.1,0.2c1,0.1,2,0.4,3,0.6c1,0.3,1.8,0.6,2.7,1c0.8,0.4,1.5,0.8,2.2,1.3c0.6,0.5,1.1,1,1.4,1.5 c0.4,0.5,0.5,1.1,0.5,1.7c0,0.7-0.2,1.4-0.5,2.1c-0.3,0.7-0.8,1.3-1.4,1.8c-0.7,0.6-1.5,1-2.5,1.4c-1,0.4-2.2,0.5-3.6,0.6 c0.9,0,1.7,0.1,2.4,0.4c0.7,0.3,1.2,0.7,1.7,1.2c0.5,0.5,0.8,1.1,1,1.7c0.2,0.7,0.3,1.4,0.3,2.1c0,0.6-0.1,1.2-0.2,1.7 c-0.2,0.6-0.4,1.2-0.7,1.7c-0.3,0.5-0.7,1.1-1.2,1.5c-0.5,0.5-1,0.9-1.6,1.2c-0.6,0.4-1.3,0.6-2.1,0.8c-0.8,0.2-1.6,0.3-2.6,0.3 c-0.6,0-1.2,0-1.9-0.1c-0.7-0.1-1.3-0.2-2-0.3c-0.7-0.1-1.3-0.3-2-0.5c-0.6-0.2-1.3-0.4-1.8-0.6c-0.3-0.1-0.5-0.2-0.7-0.3 c-0.2-0.1-0.3-0.4-0.3-0.7c0-1.5,0-3.1,0.1-4.6c0.1-1.6,0.2-3.1,0.5-4.7c0.2-1.6,0.6-2.9,1-4c0.4-1.1,1-2.3,1.7-3.3 c0.6-0.4,1.2-0.7,1.8-0.7c0.7,0,1.2,0.4,1.7,1.1c-0.4,0.6-0.8,1.2-1.1,1.9c-0.3,0.7-0.5,1.3-0.7,1.8c-0.2,0.5-0.3,1.2-0.4,2 c-0.1,0.8-0.2,1.6-0.3,2.3c0,0.4-0.1,0.9-0.1,1.4c0,0.5-0.1,1-0.1,1.5c0,0.5,0,1-0.1,1.5c0,0.5,0,1,0,1.4v0.3c0,0.1,0,0.3,0,0.4 c0,0.1,0.1,0.3,0.1,0.4c0,0.1,0.1,0.2,0.2,0.3c0.6,0.2,1.2,0.3,1.8,0.5c0.6,0.1,1.3,0.2,1.9,0.2c0.8,0,1.5-0.1,2.2-0.3 c0.7-0.2,1.4-0.5,1.9-0.9c0.6-0.4,1-0.9,1.4-1.6c0.3-0.6,0.5-1.4,0.5-2.4c0-0.5-0.1-1-0.3-1.3c-0.2-0.4-0.5-0.6-0.8-0.9 c-0.3-0.2-0.7-0.4-1.1-0.6c-0.4-0.1-0.8-0.3-1.3-0.4c-0.4-0.1-0.9-0.2-1.3-0.3c-0.4-0.1-0.8-0.2-1.1-0.4c-0.3-0.2-0.6-0.4-0.8-0.6 c-0.2-0.2-0.3-0.6-0.3-1c0-0.2,0-0.4,0-0.5c0-0.1,0.1-0.3,0.2-0.3c0.1-0.1,0.2-0.2,0.4-0.2c0.2,0,0.4-0.1,0.7-0.1c0.4,0,0.7,0,1.1,0 c0.3,0,0.7,0,1,0c0.9,0,1.7-0.1,2.4-0.3c0.7-0.2,1.3-0.5,1.8-0.9c0.5-0.4,0.9-0.8,1.1-1.3c0.3-0.5,0.4-1,0.4-1.6 c0-0.4-0.1-0.7-0.3-1c-0.2-0.3-0.5-0.6-0.9-0.8c-0.4-0.2-0.8-0.5-1.3-0.6c-0.5-0.2-1.1-0.3-1.7-0.5c-0.6-0.1-1.2-0.2-1.9-0.3 c-0.7-0.1-1.3-0.1-2-0.1c-1.1,0-2,0-2.6,0.1c-0.8,0.1-1.6,0.2-2.3,0.4c-0.7,0.2-1.4,0.4-1.9,0.8C72.1,39.5,71.7,39.8,71.4,40.2"></path> <path class="st13" d="M92.7,51.9c0.3,0,0.7-0.1,1.1-0.3c0.4-0.2,0.7-0.4,1.1-0.6c0.3-0.3,0.7-0.6,1-1.1c0.3-0.4,0.5-0.8,0.5-1.1 c0-0.4-0.1-0.7-0.2-1c-0.1-0.3-0.3-0.4-0.6-0.4c-0.4,0-0.7,0.1-1,0.2c-0.3,0.1-0.5,0.3-0.7,0.6c-0.2,0.2-0.3,0.5-0.5,0.8 c-0.1,0.3-0.2,0.7-0.4,1.1c-0.2,0.4-0.2,0.8-0.3,1.1C92.7,51.5,92.7,51.7,92.7,51.9L92.7,51.9z M94.5,58.3c-0.9,0-1.6-0.2-2.2-0.5 c-0.6-0.3-1.2-0.7-1.6-1.2c-0.4-0.5-0.7-1.1-1-1.8c-0.2-0.7-0.3-1.4-0.3-2.2c0-0.5,0.1-1.1,0.3-1.8c0.2-0.7,0.4-1.3,0.6-1.9 c0.2-0.5,0.5-1.1,0.8-1.6c0.3-0.5,0.7-0.9,1.1-1.3c0.4-0.4,0.9-0.7,1.4-0.9c0.5-0.2,1.1-0.3,1.7-0.3c0.5,0,1,0.1,1.4,0.2 c0.4,0.2,0.8,0.4,1.1,0.7c0.3,0.3,0.6,0.7,0.8,1.1c0.2,0.4,0.3,0.9,0.3,1.4c0,0.6-0.2,1.2-0.6,1.9c-0.4,0.7-0.8,1.3-1.3,1.8 c-0.5,0.5-1.1,0.9-1.8,1.3c-0.7,0.4-1.4,0.7-2.2,0.9c0.1,0.2,0.3,0.4,0.4,0.6c0.1,0.2,0.3,0.3,0.4,0.4c0.1,0.1,0.3,0.2,0.4,0.2 c0.1,0,0.3,0.1,0.5,0.1c0.5,0,1.1-0.1,1.7-0.3c0.6-0.2,1.2-0.5,1.8-0.8c0.6-0.3,1.1-0.7,1.6-1.1c0.5-0.4,0.9-0.8,1.3-1.1l1.8,1.8 c-0.8,0.8-1.7,1.6-2.6,2.2c-0.4,0.3-0.8,0.5-1.3,0.8c-0.4,0.3-0.9,0.5-1.4,0.7c-0.5,0.2-1,0.4-1.5,0.5C95.6,58.3,95,58.3,94.5,58.3z "></path> <path class="st13" d="M106.2,61.8c0,0.1,0,0.4-0.1,0.9c0,0.5-0.1,0.8-0.1,1.2c0,0.3-0.1,0.6-0.2,0.9c-0.1,0.5-0.3,0.9-0.4,1.2 c-0.1,0.3-0.2,0.6-0.3,0.9c-0.1,0.3-0.2,0.5-0.3,0.7c-0.1,0.2-0.2,0.3-0.4,0.5c-0.1,0.1-0.3,0.2-0.5,0.3c-0.2,0.1-0.4,0.1-0.6,0.1 c-0.6,0-0.8-0.4-0.5-1.3c0.4-1,0.9-2.1,1.5-3.1C104.9,63,105.5,62.3,106.2,61.8 M103.2,52.5c0.1-0.5,0.6-1.6,1.4-3.1 c0.8-1.4,1.7-2.1,2.8-2.1l-1,4.5c0,0.8-0.2,1.6-0.5,2.4c-0.4,1-0.9,1.5-1.5,1.5c-0.4,0-0.6-0.2-0.9-0.6 C103.1,54.6,103,53.7,103.2,52.5z M103.6,71c0.6,0,1.1-0.1,1.6-0.3c0.5-0.2,0.9-0.4,1.2-0.7c0.3-0.3,0.7-0.6,0.9-1.1 c0.3-0.4,0.5-0.8,0.7-1.3c0.2-0.4,0.3-0.9,0.5-1.4c0.1-0.5,0.2-1,0.3-1.3c0.1-0.4,0.1-0.8,0.1-1.2c0-0.2,0-0.4,0.1-0.8 c0.1-1.2,0.2-2,0.3-2.4c0.1-0.4,0.3-0.7,0.5-0.9c0.4-0.3,1-0.7,1.9-1.2c0,0,0.1-0.1,0.2-0.1c0.5-0.4,1-0.9,1.7-1.5 c0.6-0.7,1.1-1.3,1.4-1.8l-0.9-3c-1.4,2.2-2.6,3.7-3.6,4.5c-0.3,0.2-0.6,0.4-0.8,0.6c0.1-1.4,0.2-2.6,0.3-3.5 c0.1-0.9,0.2-1.7,0.4-2.4c0.2-0.7,0.3-1.3,0.3-1.8c0.1-1.6,0.1-2.5,0-2.8c-0.1-0.2-0.1-0.3-0.2-0.4c-0.2-0.2-0.4-0.4-0.8-0.4l-0.6,0 c-0.1,0-0.2,0-0.3,0c-0.1,0-0.2,0-0.2-0.1c-0.1,0-0.1,0-0.2-0.1c0,0-0.1,0-0.1-0.1c-0.1-0.1-0.1-0.1-0.1-0.1c0,0-0.1-0.1-0.1-0.1 c-0.1-0.1-0.1-0.1-0.1-0.2c-0.2-0.3-0.6-0.4-1-0.4c-1,0-2.1,0.5-3.2,1.5c-0.8,0.7-1.4,1.5-1.9,2.4c-0.5,0.9-1,2.1-1.4,3.5 c-0.5,1.5-0.5,2.8,0,4c0.3,0.6,0.7,1.2,1.3,1.6c0.6,0.4,1.2,0.6,2,0.6c1,0,2-0.5,3-1.5l-0.3,1.6c-0.6,0.5-1.1,1-1.5,1.4 c-0.4,0.4-0.9,1-1.6,1.7c-0.3,0.3-0.6,0.7-0.9,1.2c-0.3,0.4-0.5,0.8-0.6,1c-0.1,0.2-0.4,0.7-0.7,1.3c-0.6,1.1-0.9,2.1-0.8,3 c0,0.5,0.2,1,0.4,1.3c0.2,0.4,0.5,0.7,0.8,0.9c0.3,0.2,0.7,0.4,1.1,0.5C102.7,70.9,103.1,71,103.6,71z"></path> <path class="st13" d="M115.6,41.1c0-0.2,0-0.4,0.1-0.7c0.1-0.3,0.2-0.5,0.4-0.7c0.2-0.2,0.5-0.4,0.8-0.6c0.3-0.2,0.8-0.2,1.3-0.2 c0.3,0,0.6,0,0.9,0.1c0.3,0.1,0.5,0.2,0.7,0.3c0.2,0.2,0.4,0.3,0.5,0.6c0.1,0.2,0.2,0.5,0.2,0.9c0,0.3,0,0.6-0.1,0.9 c-0.1,0.3-0.3,0.5-0.5,0.8c-0.2,0.2-0.5,0.4-0.8,0.6c-0.3,0.1-0.7,0.2-1.2,0.2c-0.8,0-1.4-0.2-1.8-0.6 C115.8,42.3,115.6,41.8,115.6,41.1 M121.7,55.4c-0.3,0.3-0.7,0.6-1.2,1c-0.5,0.3-1,0.7-1.6,0.9c-0.6,0.3-1.1,0.5-1.7,0.7 c-0.6,0.2-1.1,0.3-1.7,0.3c-0.5,0-0.9-0.1-1.2-0.2c-0.3-0.1-0.6-0.3-0.8-0.6c-0.2-0.2-0.3-0.5-0.4-0.9c-0.1-0.3-0.1-0.7-0.1-1.1 c0-0.6,0.1-1.2,0.2-2c0.3-1.5,0.4-2.3,0.5-2.5c0.1-0.4,0.4-1.3,0.8-2.7c0.3-1.1,0.5-1.9,0.6-2.2c0-0.2,0.2-0.4,0.4-0.6 c0.2-0.2,0.4-0.3,0.6-0.4c0.2-0.1,0.5-0.2,0.7-0.2c0.3,0,0.5-0.1,0.7-0.1c0.4,0,0.6,0.1,0.8,0.2c0.1,0.1,0.2,0.3,0.2,0.6 c0,0.2,0,0.5-0.1,0.9c-0.1,0.4-0.2,0.8-0.3,1.3c-0.1,0.5-0.3,1.1-0.5,1.7c-0.2,0.7-0.4,1.3-0.5,1.8c-0.1,0.5-0.3,1.1-0.3,1.6 s-0.1,1-0.1,1.4c0,0.4,0,0.7,0.1,1c0.1,0.2,0.3,0.4,0.6,0.4c0.3,0,0.7-0.1,1.1-0.3c0.4-0.2,0.8-0.5,1.2-0.8c0.4-0.3,0.8-0.7,1.2-1 c0.4-0.3,0.7-0.6,1-0.9V55.4z"></path> <path class="st13" d="M120.7,55.5c0-0.6,0-1.3,0.1-2.1c0.1-0.8,0.2-1.7,0.3-2.6c0.1-0.9,0.2-1.8,0.4-2.5c0.1-0.8,0.3-1.4,0.4-1.9 c0.1-0.4,0.3-0.8,0.6-1.1c0.3-0.3,0.7-0.4,1.2-0.4c0.5,0,0.8,0.1,1,0.4c0.2,0.3,0.3,0.7,0.3,1.2c0,0.1,0,0.3,0,0.6 c0,0.2-0.1,0.5-0.1,0.8c0,0.3-0.1,0.6-0.1,0.9c0,0.3-0.1,0.6-0.1,1c0,0.4-0.1,0.7-0.1,0.8c0,0.2,0,0.3,0,0.4h0.3 c0.1-0.1,0.1-0.3,0.3-0.5c0.1-0.2,0.3-0.5,0.4-1c0.2-0.4,0.3-0.8,0.5-1.1c0.2-0.3,0.3-0.6,0.5-0.9c0.2-0.3,0.3-0.6,0.4-0.8 c0.1-0.2,0.2-0.4,0.3-0.5c0.3-0.5,0.6-0.8,1-1c0.4-0.2,0.8-0.3,1.2-0.3c0.5,0,0.8,0.2,1.1,0.6c0.3,0.4,0.4,0.9,0.4,1.6 c0,0.1,0,0.3-0.1,0.5c0,0.2-0.1,0.5-0.2,0.8c-0.1,0.3-0.1,0.8-0.2,1.3c-0.1,0.5-0.1,1-0.2,1.4c-0.1,0.4-0.1,0.8-0.2,1.2 c0,0.4-0.1,0.8-0.1,1.1c0,0.6,0.1,1,0.2,1.4c0.1,0.4,0.4,0.5,0.7,0.5c0.1,0,0.3,0,0.5-0.1c0.3-0.1,0.5-0.2,0.6-0.3 c0.4-0.3,0.6-0.5,0.6-0.4c0,0,0.3-0.2,0.9-0.5c0.7-0.5,1.6-1,2.6-1.7l0,3.1l-0.7,0.5c-0.1,0-0.5,0.3-1.3,0.7c-1.2,0.6-1.9,1-2.2,1.1 c-0.7,0.3-1.2,0.5-1.3,0.5c-0.5,0.1-0.9,0.2-1.4,0.2c-0.5,0-0.9-0.4-1.3-1.1c-0.3-0.7-0.5-1.8-0.5-3.2c0-0.5,0-1.1,0.1-1.8 c0.1-0.6,0.2-1.3,0.3-2h-0.2l-3.6,7.1c-0.2,0.4-0.4,0.6-0.6,0.8c-0.2,0.1-0.5,0.2-0.8,0.2c-0.4,0-0.7-0.1-0.9-0.2 c-0.2-0.2-0.4-0.4-0.5-0.6c-0.1-0.3-0.2-0.6-0.2-0.9C120.8,56.2,120.7,55.9,120.7,55.5"></path> <path class="st13" d="M133.9,55.5c0-0.6,0-1.3,0.1-2.1c0.1-0.8,0.2-1.7,0.3-2.6c0.1-0.9,0.2-1.8,0.4-2.5c0.1-0.8,0.3-1.4,0.4-1.9 c0.1-0.4,0.3-0.8,0.6-1.1c0.3-0.3,0.7-0.4,1.2-0.4c0.5,0,0.8,0.1,1,0.4c0.2,0.3,0.3,0.7,0.3,1.2c0,0.1,0,0.3,0,0.6 c0,0.2-0.1,0.5-0.1,0.8c0,0.3-0.1,0.6-0.1,0.9c0,0.3-0.1,0.6-0.1,1c0,0.4-0.1,0.7-0.1,0.8c0,0.2,0,0.3,0,0.4h0.3 c0.1-0.1,0.1-0.3,0.3-0.5c0.1-0.2,0.3-0.5,0.4-1c0.2-0.4,0.3-0.8,0.5-1.1c0.2-0.3,0.3-0.6,0.5-0.9c0.2-0.3,0.3-0.6,0.4-0.8 c0.1-0.2,0.2-0.4,0.3-0.5c0.3-0.5,0.6-0.8,1-1c0.4-0.2,0.8-0.3,1.2-0.3c0.5,0,0.8,0.2,1.1,0.6c0.3,0.4,0.4,0.9,0.4,1.6 c0,0.1,0,0.3-0.1,0.5c0,0.2-0.1,0.5-0.2,0.8c-0.1,0.3-0.1,0.8-0.2,1.3c-0.1,0.5-0.1,1-0.2,1.4s-0.1,0.8-0.2,1.2 c0,0.4-0.1,0.8-0.1,1.1c0,0.6,0.1,1,0.2,1.4c0.1,0.4,0.4,0.5,0.7,0.5c0.1,0,0.3,0,0.5-0.1c0.3-0.1,0.5-0.2,0.6-0.3 c0.4-0.3,0.6-0.5,0.6-0.4c0,0,0.3-0.2,0.9-0.5c0.7-0.5,1.6-1,2.6-1.7l0,3.1l-0.7,0.5c-0.1,0-0.5,0.3-1.3,0.7c-1.2,0.6-1.9,1-2.2,1.1 c-0.7,0.3-1.2,0.5-1.3,0.5c-0.5,0.1-0.9,0.2-1.4,0.2c-0.5,0-0.9-0.4-1.3-1.1c-0.3-0.7-0.5-1.8-0.5-3.2c0-0.5,0-1.1,0.1-1.8 c0.1-0.6,0.2-1.3,0.3-2h-0.2l-3.6,7.1c-0.2,0.4-0.4,0.6-0.6,0.8c-0.2,0.1-0.5,0.2-0.8,0.2c-0.4,0-0.7-0.1-0.9-0.2 c-0.2-0.2-0.4-0.4-0.5-0.6c-0.1-0.3-0.2-0.6-0.2-0.9C134,56.2,133.9,55.9,133.9,55.5"></path> <path class="st13" d="M150.5,51.9c0.3,0,0.7-0.1,1.1-0.3c0.4-0.2,0.7-0.4,1.1-0.6c0.3-0.3,0.7-0.6,1-1.1c0.3-0.4,0.5-0.8,0.5-1.1 c0-0.4-0.1-0.7-0.2-1c-0.1-0.3-0.3-0.4-0.6-0.4c-0.4,0-0.7,0.1-1,0.2c-0.3,0.1-0.5,0.3-0.7,0.6c-0.2,0.2-0.3,0.5-0.5,0.8 c-0.1,0.3-0.2,0.7-0.4,1.1c-0.1,0.4-0.2,0.8-0.3,1.1C150.5,51.5,150.5,51.7,150.5,51.9 M152.3,58.3c-0.9,0-1.6-0.2-2.2-0.5 c-0.6-0.3-1.2-0.7-1.6-1.2c-0.4-0.5-0.7-1.1-1-1.8s-0.3-1.4-0.3-2.2c0-0.5,0.1-1.1,0.3-1.8c0.2-0.7,0.4-1.3,0.6-1.9 c0.2-0.5,0.5-1.1,0.8-1.6c0.3-0.5,0.7-0.9,1.1-1.3c0.4-0.4,0.9-0.7,1.4-0.9c0.5-0.2,1.1-0.3,1.7-0.3c0.5,0,1,0.1,1.4,0.2 c0.4,0.2,0.8,0.4,1.1,0.7c0.3,0.3,0.6,0.7,0.8,1.1c0.2,0.4,0.3,0.9,0.3,1.4c0,0.6-0.2,1.2-0.6,1.9c-0.4,0.7-0.8,1.3-1.3,1.8 c-0.5,0.5-1.1,0.9-1.8,1.3c-0.7,0.4-1.4,0.7-2.2,0.9c0.1,0.2,0.3,0.4,0.4,0.6c0.1,0.2,0.3,0.3,0.4,0.4c0.1,0.1,0.3,0.2,0.4,0.2 c0.1,0,0.3,0.1,0.5,0.1c0.5,0,1.1-0.1,1.7-0.3c0.6-0.2,1.2-0.5,1.8-0.8c0.6-0.3,1.1-0.7,1.6-1.1c0.5-0.4,0.9-0.8,1.3-1.1l1.8,1.8 c-0.8,0.8-1.7,1.6-2.6,2.2c-0.4,0.3-0.8,0.5-1.3,0.8c-0.4,0.3-0.9,0.5-1.4,0.7c-0.5,0.2-1,0.4-1.5,0.5 C153.4,58.3,152.9,58.3,152.3,58.3z"></path> <path class="st13" d="M158.6,55.5c0-0.4,0-0.9,0.1-1.4c0-0.5,0.1-1.1,0.2-1.7c0.1-0.6,0.2-1.2,0.3-1.8c0.1-0.6,0.2-1.3,0.4-2 c0.2-0.7,0.3-1.3,0.4-1.7c0.1-0.5,0.2-0.8,0.4-1.1c0.1-0.2,0.1-0.4,0.2-0.5c0.1-0.1,0.2-0.2,0.3-0.3c0.1-0.1,0.2-0.1,0.4-0.1 c0.1,0,0.3,0,0.5,0c0.2,0,0.4,0,0.6,0c0.1,0,0.2,0.1,0.3,0.2c0.1,0.1,0.1,0.2,0.1,0.4c0,0.2,0,0.4,0,0.7c0,0.3,0,0.8-0.1,1.4 c0,0.6-0.1,1.2,0,1.6h0.1c0.2-0.4,0.4-0.8,0.7-1.4c0.3-0.6,0.6-1.1,0.9-1.5c0.3-0.4,0.6-0.7,1-1c0.4-0.3,0.8-0.4,1.3-0.4 c0.2,0,0.3,0,0.5,0.1c0.2,0.1,0.3,0.1,0.4,0.3c0.1,0.1,0.2,0.2,0.3,0.4c0.1,0.2,0.1,0.3,0.1,0.5c0,0.2,0,0.4-0.1,0.6 c0,0.3-0.1,0.6-0.2,1.1c-0.1,0.4-0.2,0.8-0.2,1.1c0,0.3-0.1,0.5-0.1,0.7c0,0.3,0,0.6,0.1,0.8c0.1,0.2,0.1,0.4,0.3,0.5 c0.1,0.1,0.2,0.2,0.4,0.3c0.1,0.1,0.3,0.1,0.4,0.1c0.4,0,0.8-0.1,1.3-0.3c0.4-0.2,0.8,0.1,1.1-0.2c0.4-0.3,1.1-0.8,1.5-1.2l-0.4,3 c-0.2,0.2-0.5,0.3-0.8,0.5c-0.3,0.2-0.6,0.4-1,0.5c-0.3,0.2-0.7,0.3-1.1,0.4c-0.4,0.1-0.7,0.2-1.1,0.2c-0.7,0-1.2-0.1-1.6-0.4 c-0.4-0.3-0.8-0.6-1-1.1c-0.2-0.4-0.4-1-0.5-1.5c-0.1-0.6-0.2-1.1-0.3-1.7h-0.2l-2.4,6.8c-0.1,0.4-0.2,0.6-0.4,0.9 c-0.1,0.2-0.2,0.4-0.3,0.6c-0.1,0.1-0.2,0.2-0.4,0.3c-0.1,0.1-0.3,0.1-0.4,0.1c-0.4,0-0.7-0.1-0.9-0.2c-0.2-0.2-0.4-0.4-0.5-0.6 c-0.1-0.3-0.2-0.6-0.2-0.9C158.6,56.2,158.6,55.9,158.6,55.5"></path> <path class="st13" d="M169.8,53.9c-0.1,0-0.3,0-0.4,0.1c-0.1,0-0.2,0-0.4,0c-0.1,0-0.3,0-0.4,0c-0.1,0-0.2,0-0.3-0.1 c-0.1-0.1-0.2-0.2-0.2-0.3c-0.1-0.1-0.1-0.3-0.1-0.6c0-0.2,0.1-0.4,0.2-0.6c0.1-0.2,0.2-0.4,0.4-0.5c0.2-0.2,0.5-0.4,0.8-0.6 c1.6-0.5,4-1.9,5.3-3.6c0.3-0.4,0.7-0.8,1.3-1.5c0.1-0.2,0.2-0.3,0.4-0.5c0.1-0.2,0.3-0.3,0.5-0.4c0.2-0.1,0.4-0.2,0.6-0.3 c0.2-0.1,0.5-0.1,0.7-0.1c0.4,0,0.8,0,1,0.1c0.2,0.1,0.4,0.2,0.5,0.3c0.1,0.1,0.2,0.3,0.2,0.4c0,0.1,0,0.3,0,0.4 c0,0.2-0.1,0.5-0.3,0.7c-0.2,0.3-0.4,0.5-0.6,0.8c-0.2,0.2-0.4,0.5-0.6,0.7c-0.2,0.2-0.3,0.4-0.3,0.5c0,0.3,0,0.5,0.1,0.8 c0.5,1.7,1.9,2.6,1.9,4.6c0,1.6-0.7,3.7-2.1,4.2c-2.1,0.8-4.4,0.4-5.8-1.6c0.1-2.3-0.3-3,1.1-1.9c0.9,1,3.1,1.8,3.7,0.8 c1.1-1.8-0.1-2.6-0.7-3.8c-0.4-0.8-0.9-1.4-1-1.6C173.5,52,171.9,52.9,169.8,53.9"></path> <path class="st13" d="M128.6,11.3c0.5-1.4,0.9-2.6,1.2-3.5c0.2-1,0.4-1.7,0.4-2.1c0-0.7-0.1-1-0.3-1c-0.2,0-0.6,0.4-1.1,1.2 c-0.5,0.8-1,1.9-1.6,3.4c-0.2,0.5-0.3,1-0.4,1.6c-0.1,0.5-0.2,1.1-0.4,1.6c-0.1,0.5-0.2,1.1-0.3,1.6c-0.1,0.5-0.2,1-0.2,1.5 c-0.2,1.1-0.3,2.1-0.4,3.2c0.2-0.6,0.5-1.2,0.8-1.9c0.3-0.7,0.6-1.3,0.9-2c0.3-0.7,0.5-1.3,0.8-1.9 C128.3,12.2,128.5,11.7,128.6,11.3 M127.4,19.7c0.4-0.5,0.8-1,1.3-1.6c0.5-0.6,1-1.3,1.9-1.9c1.4-1,3.2-2.4,4.3-0.5 c0.2,0.8,0.2,1,0,1.7c-0.2,0.6-0.5,1.3-1,2.1c-0.5,0.8-0.8,1.6-1,2.2c-0.2,0.6-0.3,1.2-0.3,1.9c0,0.4,0.1,0.7,0.2,0.9 c0.1,0.2,1,0.6,1.2,0.6c1.8-0.2,4.7-4,5.5-6l0.8,2.5c0,2.1-4.2,6-6,6.6c-0.4,0.1-0.7,0.2-1,0.2c-0.5,0-2.1-0.1-2.4-0.4 c-0.4-0.3-0.7-0.6-0.9-1c-0.2-0.4-0.4-0.9-0.5-1.4c-0.1-0.5-0.2-1-0.2-1.4c0-0.3,0-0.6,0.1-1c0.1-0.4,0.2-0.7,0.3-1.1 c0.1-0.4,0.2-0.7,0.4-1.1c0.1-0.3,0.3-0.7,0.4-0.9c0.1-0.3,0.2-0.5,0.3-0.7c0.1-0.2,0.1-0.3,0.2-0.3l-0.3,0 c-0.2,0.1-0.4,0.4-0.8,0.8c-0.4,0.4-0.8,0.9-1.2,1.5c-0.5,0.6-0.9,1.3-1.4,2.1c-0.5,0.8-0.9,1.6-1.3,2.4c-0.2,0.4-0.4,0.8-0.5,1.1 c-0.1,0.3-0.3,0.6-0.4,0.8c-0.1,0.2-0.3,0.3-0.4,0.4c-0.1,0.1-0.3,0.1-0.6,0.1c-0.3,0-0.5-0.1-0.7-0.3c-0.2-0.2-0.3-0.4-0.4-0.7 c-0.1-0.3-0.1-0.6-0.2-1c0-0.4,0-0.7,0-1.1c0-0.6,0-1.4,0-2.4c0-1,0.1-2.1,0.1-3.3c0.1-1.2,0.2-2.5,0.3-3.8c0.1-1.3,0.3-2.6,0.6-3.9 c0.3-1.3,0.6-2.5,0.9-3.7c0.4-1.2,0.8-2.2,1.4-3.1c0.5-0.9,1.2-1.6,1.9-2.1c0.7-0.5,1.6-0.8,2.5-0.8c0.5,0,0.9,0.1,1.2,0.2 c0.3,0.1,0.6,0.3,0.7,0.6c0.2,0.3,0.3,0.6,0.4,0.9c0.1,0.4,0.1,0.8,0.1,1.2c0,0.7-0.1,1.4-0.3,2.2c-0.2,0.8-0.4,1.7-0.8,2.6 c-0.3,0.9-0.7,1.8-1.1,2.7c-0.4,0.9-0.8,1.8-1.2,2.6c-0.4,0.9-0.8,1.7-1.2,2.4c-0.4,0.8-0.8,1.4-1.1,2L127.4,19.7z"></path> <polygon points="52.2,58.4 52.1,56.4 53.4,56.8 "></polygon> <path class="st14" d="M56.6,32.6c3.2-0.4,4,0.7,5,1.7c6.4-0.8,3.3,7.3,2.8,5.7c0.4,2.5,1.2,4-2.6,5.1c-1.1,1.8-1.1,3.4-4.4,3 c-1.6,0-3-1.5-4.2-3.2c-1.7-1.5-1.9-2.1-2.1-2.5c-2.1,0.8-3.6-0.5-3.6-3c0-2.2,1.9-4.2,3.7-3C52.5,34.4,53.4,32.6,56.6,32.6"></path> <path d="M65.4,37.4c-0.3-3.3-2.7-3.1-3.5-2.9c0.3,0.5,0.4,1.1,0.5,1.7c0.2,1.3-0.2,2.7-0.7,3.7c0,0.1-0.1,0.1-0.1,0.2 C62.5,40.3,65.8,40.7,65.4,37.4 M63.3,44.4L63.3,44.4c1.9-1.1,1.3-3.4,1-4.1c-1.1,0.4-2.6,0.1-3,0c-0.7,0.8-1.6,1.4-2.7,1.7 c-0.5,0.1-1,0.2-1.4,0.1c0,0.3-0.1,1.1,0.6,1.7c0.5,0.5,1.5,1,2.7,1.2C61.4,45.1,62.3,45,63.3,44.4z M59.4,48.1 c1.2-0.3,1.9-2,2.1-2.6c-0.3,0-0.7,0-1,0c-1.3-0.1-2.4-0.8-3-1.3c-0.7-0.7-0.7-1.6-0.7-2c-0.4-0.1-0.8-0.2-1.2-0.4 c-0.3-0.1-0.5-0.3-0.7-0.6l-0.1,0.1c0,0-0.7-0.4-1.2,0.3h0c-0.3,0.4-0.5,1.3-0.4,2.2c0.1,0.8,0.3,1.6,0.7,2.2l0,0 c0.5,0.7,1.5,1.3,2.5,1.7C57.5,48.1,58.6,48.3,59.4,48.1z M53.1,45.2c-0.9-0.5-1.5-1.2-1.8-1.8c-0.4-0.6-0.6-1.3-0.8-2l0.4-0.1 c0.2,0.6,0.4,1.3,0.7,1.9c0.3,0.5,0.8,1,1.4,1.5c-0.1-0.3-0.1-0.5-0.1-0.8c-0.1-1,0.1-2,0.5-2.4l0,0c0.4-0.6,1-0.6,1.4-0.5 c-0.2-0.3-0.3-0.6-0.4-0.9c-0.8-3.2,3.1-4,3.1-4l0.1,0.4c0,0-3.5,0.7-2.8,3.6c0.2,0.7,0.6,1.2,1.1,1.5c0.4,0.2,0.8,0.3,1.3,0.4 c0.5,0,1,0,1.4-0.1c1.1-0.3,2.2-1,2.8-2c0.5-1,0.8-2.3,0.7-3.5c-0.1-0.6-0.2-1.1-0.5-1.6c-0.3-0.5-0.7-0.9-1.3-1.2 c-0.8-0.5-2-0.7-3.6-0.5c-5.9,0.7-5.7,5.8-5.7,5.8l-0.4,0c0,0-0.2-5.4,6-6.2c1.7-0.2,2.9,0,3.8,0.6c0.5,0.3,1,0.7,1.3,1.1 c0.7-0.2,3.7-0.7,4.1,3.2c0.2,1.6-0.4,2.4-1.2,2.9c0.3,0.7,1,3.3-1.2,4.6h0c-0.5,0.3-1.1,0.5-1.6,0.6c-0.2,0.5-1,2.7-2.5,3.1 c-0.8,0.2-2,0-3.1-0.4c-1.1-0.4-2.1-1.1-2.7-1.8v0C53.4,45.9,53.2,45.5,53.1,45.2L53.1,45.2z"></path> <path class="st15" d="M51.1,36.7c-1-0.5-1.9-0.3-2.4,0.3c-0.6,0.6-0.9,1.5-1,2.4c-0.1,0.9,0.1,1.8,0.6,2.4c0.5,0.6,1.4,0.8,2.7,0.4 l0.1,0.4c-1.5,0.5-2.5,0.2-3.1-0.5c-0.6-0.7-0.8-1.7-0.7-2.7c0.1-1,0.5-2,1.1-2.7c0.7-0.7,1.7-1,2.9-0.4L51.1,36.7z"></path> </svg> 